<mxfile host="app.diagrams.net" modified="2024-01-18T19:22:52.420Z" agent="Mozilla/5.0 (X11; Linux x86_64; rv:109.0) Gecko/20100101 Firefox/115.0" version="22.1.21" etag="UNFZ1ppdGbzF7wxWxqI0" type="github">
  <diagram name="PÃ¡gina-1" id="oUb3A-TFo-vtwjU7E0NT">
    <mxGraphModel>
      <root>
        <mxCell id="0" />
        <mxCell id="1" parent="0" />
      </root>
    </mxGraphModel>
  </diagram>
</mxfile>
